<?xml version="1.0" standalone="no"?>
<!DOCTYPE svg PUBLIC "-//W3C//DTD SVG 20010904//EN"
 "http://www.w3.org/TR/2001/REC-SVG-20010904/DTD/svg10.dtd">
<svg version="1.0" xmlns="http://www.w3.org/2000/svg"
 width="700.000000pt" height="700.000000pt" viewBox="0 0 700.000000 700.000000"
 preserveAspectRatio="xMidYMid meet">
<metadata>
Created by potrace 1.11, written by Peter Selinger 2001-2013
</metadata>
<g transform="translate(0.000000,700.000000) scale(0.100000,-0.100000)"
fill="#000000" stroke="none">
<path d="M2885 6503 c-61 -14 -212 -71 -295 -113 -283 -141 -476 -318 -647
-595 -58 -94 -144 -319 -158 -415 -4 -24 -8 -47 -10 -50 -7 -12 -18 -192 -18
-305 -1 -351 61 -670 139 -721 28 -19 139 -25 223 -12 35 5 85 7 110 3 40 -6
54 -15 106 -69 33 -35 67 -66 76 -69 20 -7 106 41 148 83 73 74 43 128 -89
159 -39 9 -252 8 -455 -3 -92 -5 -119 16 -144 110 -6 23 -14 68 -17 100 -3 33
-7 73 -10 89 -3 17 -7 116 -9 220 -3 172 7 311 29 382 3 10 7 31 10 46 8 48
37 128 72 202 64 137 141 187 194 124 8 -9 23 -27 32 -38 25 -30 38 -26 38 13
0 38 21 61 50 53 11 -3 36 -1 57 4 21 5 95 22 164 39 215 51 323 56 423 22 32
-11 71 -18 85 -16 14 1 49 5 77 8 27 3 86 17 130 31 184 60 277 69 351 35 136
-61 315 -218 358 -313 13 -28 26 -72 28 -97 8 -68 20 -108 60 -195 52 -118 63
-146 70 -185 4 -19 9 -46 12 -60 20 -96 -6 -223 -48 -236 -12 -4 -91 -8 -177
-9 -135 -2 -170 -6 -270 -32 -246 -64 -482 -183 -510 -257 -9 -23 13 -56 36
-56 25 0 46 -46 39 -82 -7 -32 -7 -32 16 -17 171 109 195 114 305 62 40 -19
81 -33 91 -31 10 2 24 18 32 35 21 47 44 50 98 14 62 -42 93 -25 106 58 5 29
1 39 -25 63 -16 15 -38 29 -47 29 -43 3 -120 -2 -151 -11 -19 -6 -50 -10 -67
-10 -26 0 -33 4 -33 20 0 33 66 45 255 44 311 0 451 -35 536 -135 42 -50 97
-83 122 -73 19 7 28 -17 33 -95 4 -65 15 -91 40 -91 8 0 48 10 90 22 59 18 76
27 80 44 13 51 -23 84 -91 84 -24 0 -37 6 -45 21 -12 22 -15 78 -5 119 3 14 8
54 11 90 3 36 6 67 7 70 5 27 -19 73 -45 86 -27 14 -29 19 -24 47 7 37 90 162
112 171 23 9 34 -2 34 -30 0 -19 5 -25 18 -22 26 6 19 59 -16 110 -54 79 -73
129 -117 302 -72 281 -198 636 -264 741 -106 168 -382 323 -741 416 -40 10
-232 45 -335 60 -80 12 -210 18 -240 12z"/>
<path d="M4699 4423 c-4 -51 -1 -113 6 -129 7 -18 7 -18 15 1 10 24 12 107 4
129 -8 21 -24 20 -25 -1z"/>
<path d="M2143 4224 c-20 -20 -24 -31 -19 -57 12 -58 57 -62 93 -8 49 73 -12
127 -74 65z"/>
<path d="M4493 4024 c-10 -27 19 -67 60 -83 45 -17 63 -6 53 33 -11 45 -99 85
-113 50z"/>
<path d="M4552 3439 c-12 -5 -22 -14 -23 -21 -4 -71 -39 -121 -186 -265 -142
-139 -243 -222 -273 -225 -19 -2 -26 3 -33 27 -19 61 -27 74 -39 70 -17 -7
-52 -64 -118 -190 -128 -246 -297 -396 -505 -450 -48 -12 -178 -27 -253 -28
-9 0 -10 -3 -2 -11 17 -17 206 -17 285 0 39 9 81 18 95 20 29 6 225 70 255 83
163 74 225 110 285 166 96 89 148 124 199 132 36 6 77 39 110 87 44 63 57 72
65 42 17 -67 -35 -250 -127 -446 -50 -106 -76 -190 -87 -277 -9 -72 -30 -123
-49 -123 -41 0 -378 -559 -406 -672 -9 -34 -61 -90 -105 -113 -19 -10 -61 -25
-94 -35 -93 -27 -152 -58 -213 -113 -44 -41 -58 -49 -71 -40 -16 9 -48 56
-207 305 -84 130 -113 230 -132 458 -10 114 -10 518 0 554 8 29 12 30 75 11
18 -6 21 -4 16 9 -15 40 -190 125 -297 145 -47 8 -49 8 -85 -28 -43 -44 -163
-121 -282 -182 -262 -134 -451 -260 -585 -393 -127 -126 -219 -270 -276 -433
-31 -89 -85 -305 -95 -383 -3 -25 -7 -52 -9 -60 -3 -8 -7 -37 -11 -65 -3 -27
-7 -61 -9 -75 -2 -14 -7 -51 -10 -83 -4 -32 -8 -68 -11 -80 -2 -12 -7 -51 -10
-85 -3 -35 -7 -72 -9 -81 -2 -10 -6 -54 -10 -97 -4 -43 -9 -90 -11 -104 -3
-14 -7 -107 -9 -207 l-4 -182 1222 4 c1186 4 1364 7 1416 27 l25 9 -33 20
c-19 11 -56 29 -83 40 -64 25 -146 66 -182 92 -25 18 -27 22 -12 32 21 16 88
10 231 -21 129 -28 264 -85 272 -115 7 -26 25 -24 87 11 64 36 161 58 231 53
63 -5 94 -20 102 -51 11 -46 88 -64 383 -89 110 -9 491 -9 600 0 158 13 207
28 236 72 l17 27 11 -33 c21 -64 104 -72 746 -73 l435 0 0 414 c0 382 -5 537
-20 615 -23 127 -53 206 -122 329 -47 84 -92 150 -99 144 -4 -5 26 -110 36
-123 4 -5 23 -46 43 -91 42 -96 49 -142 25 -158 -9 -5 -18 -8 -20 -6 -2 3 -46
90 -98 195 -275 551 -294 571 -945 1040 -218 157 -494 368 -551 420 -6 5 -37
33 -69 60 -126 108 -213 197 -270 277 -33 46 -64 88 -70 95 -145 174 -231 241
-283 222z m129 -1250 c-2 -45 4 -84 18 -125 20 -56 26 -93 22 -140 -1 -25 -47
-78 -60 -70 -8 5 -1 58 17 121 16 59 2 80 -33 47 -36 -31 -78 -62 -86 -62 -16
0 -9 37 22 127 35 101 75 176 91 171 7 -3 11 -29 9 -69z m-187 -525 c21 -8 20
-33 -4 -124 -11 -41 -20 -91 -20 -110 0 -45 -24 -80 -55 -80 -43 0 -46 27 -14
124 16 49 29 100 29 113 0 27 17 64 34 75 13 9 11 9 30 2z m802 -287 c13 -13
-3 -19 -63 -21 -71 -3 -134 11 -112 25 16 11 163 8 175 -4z m-530 -322 c76
-49 -60 -112 -150 -70 -78 37 -22 97 83 89 24 -2 55 -11 67 -19z m807 -100
c43 -18 67 -53 46 -66 -25 -16 -117 7 -151 38 -42 38 35 58 105 28z m345 -82
c4 -40 -45 -91 -126 -132 -98 -49 -132 -48 -137 2 -4 35 18 53 48 40 31 -15
65 1 85 39 30 56 69 90 99 86 23 -2 29 -8 31 -35z m-1524 -76 c37 -27 13 -97
-33 -97 -23 0 -51 31 -51 56 0 22 33 54 55 54 6 0 19 -6 29 -13z m-227 -10
c14 -15 -12 -22 -80 -22 -75 1 -112 9 -103 23 6 10 173 8 183 -1z m1263 -34
c0 -25 -74 -112 -86 -101 -8 9 27 91 49 115 24 27 37 21 37 -14z m-811 -68
c10 -11 -18 -27 -50 -30 -54 -4 -106 28 -61 37 21 5 104 -1 111 -7z m448 -16
c44 -42 17 -85 -48 -74 -39 7 -59 17 -82 43 -15 17 -17 24 -7 42 11 20 17 22
63 17 32 -4 59 -14 74 -28z m483 -10 c38 -21 66 -58 71 -94 8 -59 -43 -92 -58
-37 -9 32 -10 39 -12 52 0 5 -12 17 -25 25 -18 12 -30 13 -50 6 -35 -14 -36
10 -1 44 29 30 28 30 75 4z m-1625 -90 c11 -35 -3 -66 -35 -77 -26 -9 -31 -8
-40 9 -12 21 -8 32 23 67 25 28 44 28 52 1z m103 -111 c-6 -53 -11 -64 -27
-53 -12 7 -15 107 -4 118 3 4 13 1 21 -5 10 -9 13 -26 10 -60z m436 -2 c30 -4
64 -9 77 -11 13 -3 34 -7 46 -9 32 -6 109 -42 117 -54 3 -6 1 -14 -6 -18 -17
-11 -149 -12 -218 -2 -30 4 -77 11 -105 14 -76 9 -180 46 -180 64 0 25 125 32
269 16z m-875 -97 c17 -16 21 -28 16 -48 -11 -45 -24 -49 -56 -13 -42 47 -39
70 12 81 3 0 15 -9 28 -20z m1242 -105 c6 -3 3 -11 -8 -19 -20 -15 -80 -13
-109 3 -18 10 -18 11 6 20 25 9 94 7 111 -4z m-1352 -73 c31 -17 24 -53 -12
-65 -53 -19 -132 48 -89 74 20 12 70 7 101 -9z m1323 -61 c45 -12 77 -34 65
-46 -23 -24 -118 -4 -146 30 -16 19 -5 38 17 32 10 -2 38 -9 64 -16z"/>
<path d="M4281 41 c-19 -12 17 -31 63 -33 41 -1 75 20 54 33 -17 11 -99 11
-117 0z"/>
</g>
</svg>
